# xmcd
#
# Track frame offsets:
#	150
#	19566
#	43065
#	62973
#	83257
#	104685
#	126403
#	144747
#	163456
#	184044
#
# Disc length: 2820 seconds
#
# Revision: 2
# Processed by: cddbd v1.5.2PL0 Copyright (c) Steve Scherf et al.
# Submitted via: Jack! The Knife 17 Overdose
#
DISCID=8d0b020a
DTITLE=Pooh - Il Colore Dei Pensieri
DYEAR=1987
DGENRE=Pop
TTITLE0=Per Te Domani
TTITLE1=Mai Dire Mai
TTITLE2=Santa Lucia
TTITLE3=Tu Dov'eri
TTITLE4=Acqua Dalla Luna
TTITLE5=Città Di Donne
TTITLE6=Non Sei Lei
TTITLE7=Io Sto Con Te
TTITLE8=Siamo Ancora Sulla Strada
TTITLE9=Dall'altra Parte
EXTD=Pooh
EXTT0=Facchinetti, Negrini
EXTT1=Battaglia, Negrini
EXTT2=Battaglia, Negrini
EXTT3=Facchinetti, Negrini
EXTT4=Facchinetti, Negrini
EXTT5=Canzian, Negrini
EXTT6=Facchinetti, Negrini
EXTT7=Battaglia, D'Orazio
EXTT8=Facchinetti, D'Orazio
EXTT9=Facchinetti, Negrini
PLAYORDER=
